<?xml version="1.0" encoding="utf-8"?>
<!-- Generator: Adobe Illustrator 23.0.0, SVG Export Plug-In . SVG Version: 6.00 Build 0)  -->
<svg version="1.1" id="Layer_1" xmlns="http://www.w3.org/2000/svg" xmlns:xlink="http://www.w3.org/1999/xlink" x="0px" y="0px"
	 viewBox="0 0 100 64" style="enable-background:new 0 0 100 64;" xml:space="preserve">
<style type="text/css">
	.st0{fill:#FFFFFF;}
</style>
<g>
	<path class="st0" d="M50,35.7c-10.3,0-20.6,0-30.9,0c-5,0-10,0-15,0C1.6,35.7,0,34.2,0,32c0-2.2,1.6-3.7,4.2-3.7
		c15.9,0,31.8,0,47.7,0c14.4,0,28.8,0,43.2,0c0.4,0,0.9,0,1.3,0c2.1,0.1,3.6,1.6,3.6,3.6c0,2.1-1.5,3.7-3.7,3.7c-4.8,0-9.6,0-14.4,0
		C71.3,35.7,60.6,35.7,50,35.7C50,35.7,50,35.7,50,35.7z"/>
	<path class="st0" d="M50,56.7c15.1,0,30.1,0,45.2,0c0.5,0,1,0,1.5,0c1.8,0.1,3.2,1.5,3.3,3.2c0.2,1.8-0.9,3.4-2.6,3.9
		C96.6,64,95.8,64,95,64C65,64,34.9,64,4.8,64c-0.7,0-1.5,0-2.2-0.2c-1.7-0.5-2.8-2-2.6-3.9c0.1-1.8,1.5-3.1,3.3-3.2
		c0.5,0,1.1,0,1.6,0C20,56.7,35,56.7,50,56.7z"/>
	<path class="st0" d="M50,7.3c-15,0-30,0-45,0c-0.5,0-1.1,0-1.6,0C1.6,7.2,0.2,5.8,0,4.1c-0.2-1.8,0.9-3.4,2.6-3.9C3.4,0,4.2,0,5,0
		c30,0,60,0,90,0c0.8,0,1.6,0,2.4,0.2c1.8,0.4,2.8,2,2.6,3.9c-0.2,1.8-1.5,3.1-3.3,3.2c-0.5,0-1.1,0-1.6,0C80,7.3,65,7.3,50,7.3z"/>
</g>
</svg>
